<svg width="242" height="87" viewBox="0 0 242 87" fill="none" xmlns="http://www.w3.org/2000/svg">
<path d="M60.3196 39.7459C61.1388 36.3241 62.5657 31.5862 62.8828 31.1914C62.9954 31.0254 63.1621 30.9033 63.3547 30.8457C63.5474 30.7882 63.754 30.7987 63.9398 30.8755C64.5475 31.0598 64.7061 31.7178 64.3361 32.7444C63.6227 35.0607 63.0942 36.561 63.4179 36.8506C63.7416 37.1401 63.8671 36.9032 64.1842 36.561C65.0298 35.745 65.4526 35.3239 66.166 35.3239C66.8795 35.3239 67.2494 35.9819 67.4344 36.9032C67.725 37.7455 68.0157 38.2193 68.4649 37.456C69.2312 35.7977 71.398 31.6125 71.768 31.2703C71.8945 31.1301 72.0629 31.0339 72.2484 30.996C72.4339 30.9581 72.6267 30.9805 72.7985 31.0598C73.3798 31.2967 73.4591 31.8757 73.0627 32.7444C72.3229 34.1394 71.3716 36.1135 70.526 37.8508C69.9783 39.1339 69.3517 40.3821 68.6499 41.5885C67.7515 42.5624 66.7738 41.8254 66.351 40.2724C66.2189 39.9039 66.0867 39.4564 65.8753 38.7984C65.7168 38.3246 65.3733 38.2456 65.0033 38.5878C64.4484 39.1669 63.8935 39.7459 63.3386 40.2987C62.4666 41.1936 61.8324 41.6148 61.3568 41.6148C60.5046 41.6938 60.0554 40.9304 60.3196 39.7459Z" fill="#323232"/>
<path d="M73.8232 40.0615C73.8536 39.1737 73.9776 38.2914 74.1931 37.4294C74.4309 36.3502 75.4086 33.0073 75.6729 32.3756C76.1485 31.1385 76.677 30.7173 77.7076 30.77C79.478 30.77 81.407 30.77 81.4862 31.8755C81.6712 33.0863 79.7951 32.981 78.3417 32.7441C77.8397 32.6914 77.549 32.7441 77.4169 33.2968C77.2848 33.8496 77.1791 34.1391 77.0734 34.5603C77.0378 34.6307 77.0212 34.7091 77.0252 34.7879C77.0293 34.8666 77.0539 34.9429 77.0965 35.0093C77.1392 35.0757 77.1985 35.1299 77.2686 35.1666C77.3386 35.2032 77.4171 35.221 77.4962 35.2183C78.6324 35.3236 79.3987 35.2183 79.478 36.1396C79.5308 37.3767 78.236 37.1398 76.9148 37.2714C76.3863 37.2714 76.2014 37.4294 76.0693 37.9295C75.99 38.2453 75.9371 38.5875 75.8843 38.956C75.8314 39.3245 76.0693 39.6141 76.5449 39.6141C78.2096 39.6141 79.1873 38.956 79.4516 40.1931C79.4813 40.3906 79.4459 40.5923 79.3506 40.768C79.2552 40.9436 79.1052 41.0837 78.9231 41.1671C77.7142 41.4316 76.4859 41.5988 75.2501 41.6672C75.0441 41.6758 74.8387 41.6385 74.649 41.5581C74.4593 41.4778 74.2899 41.3562 74.1532 41.2025C74.0166 41.0487 73.916 40.8665 73.8589 40.6691C73.8018 40.4717 73.7896 40.2642 73.8232 40.0615Z" fill="#323232"/>
<path d="M88.6472 40.0877C88.5325 39.8842 88.5014 39.6443 88.5606 39.4185C88.6197 39.1927 88.7644 38.9986 88.9643 38.8769C89.8892 38.2715 90.1534 39.1401 90.7083 39.6928C91.1311 40.1929 91.5539 40.1666 91.8974 39.6402C92.7694 38.5084 93.985 34.2179 94.487 32.0069C94.6984 30.8224 95.0948 30.3749 95.8082 30.4802C96.5217 30.5855 96.7331 31.033 96.4688 32.2964C95.9281 34.524 95.2665 36.7207 94.487 38.8769C93.8264 40.851 92.5845 42.4303 90.8669 41.9828C90.3705 41.8696 89.9092 41.6379 89.5225 41.3078C89.1359 40.9777 88.8355 40.559 88.6472 40.0877Z" fill="#323232"/>
<path d="M97.3668 40.4036C96.5741 38.5084 97.5518 34.6128 98.6352 32.0859C98.7063 31.8924 98.8264 31.7205 98.9838 31.5868C99.1412 31.4531 99.3306 31.3621 99.5336 31.3226C99.677 31.2882 99.8267 31.2905 99.9689 31.3294C100.111 31.3683 100.241 31.4425 100.347 31.5451C100.452 31.6476 100.53 31.7752 100.573 31.9158C100.615 32.0564 100.621 32.2055 100.591 32.3491C100.458 33.0072 99.2694 36.429 99.2165 36.9554C98.9787 38.5084 98.9787 39.3244 99.4015 39.535C100.326 39.9035 102.202 35.6657 103.286 32.2175C103.577 31.2963 104.131 31.033 104.713 31.2173C105.294 31.4015 105.479 32.0333 105.188 32.8229L103.92 36.1921C102.969 38.5347 101.753 40.5089 100.696 41.3249C100.436 41.5431 100.126 41.6948 99.7934 41.7668C99.4608 41.8389 99.1157 41.8291 98.7878 41.7384C98.4599 41.6477 98.1591 41.4787 97.9115 41.2461C97.6639 41.0135 97.4769 40.7244 97.3668 40.4036Z" fill="#323232"/>
<path d="M105.374 40.4037C105.291 40.1576 105.298 39.8899 105.395 39.6487C105.492 39.4075 105.672 39.2085 105.902 39.0876C106.001 39.029 106.11 38.9907 106.224 38.9749C106.337 38.9591 106.453 38.9661 106.564 38.9956C106.675 39.025 106.779 39.0763 106.869 39.1463C106.96 39.2164 107.035 39.3038 107.092 39.4035C107.275 39.6656 107.528 39.8728 107.821 40.0026C108.114 40.1325 108.438 40.1802 108.756 40.1405C110.21 40.0089 110.421 38.298 109.206 37.0872C108.403 36.4633 107.644 35.7862 106.933 35.0604C106.677 34.7434 106.537 34.3487 106.537 33.9417C106.537 33.5347 106.677 33.14 106.933 32.823C107.884 31.6385 109.972 30.7436 111.848 30.7173C112.561 30.7173 112.958 30.9805 113.037 31.5069C113.143 32.086 112.799 32.4282 111.874 32.6388C111.119 32.7078 110.379 32.8944 109.681 33.1915C108.545 33.7443 108.545 34.0075 109.47 34.7445C111.055 35.929 111.769 37.1135 111.954 38.6928C111.988 39.467 111.739 40.2275 111.253 40.8326C110.767 41.4378 110.077 41.8466 109.311 41.983C107.726 42.3778 105.698 41.5355 105.374 40.4037Z" fill="#323232"/>
<path d="M117.133 40.2459C117.794 38.5087 119.115 33.9287 119.115 33.0601C119.115 32.8232 119.01 32.6126 118.719 32.6126C117.292 32.6126 115.786 32.8758 115.152 32.8758C114.835 32.8758 114.57 32.6653 114.438 32.2178C114.306 31.7703 114.729 31.086 115.416 30.9807C117.266 30.6122 118.64 30.5595 123.792 30.5858C124.823 30.5858 125.325 30.9017 125.325 31.5334C125.323 31.7638 125.235 31.9853 125.079 32.1553C124.923 32.3254 124.71 32.432 124.479 32.4547C123.819 32.5073 122.973 32.5337 122.445 32.5337C121.414 32.5337 121.335 32.6126 121.071 33.5865C120.491 36.0886 119.777 38.5576 118.93 40.9829C118.613 41.7463 118.005 42.0884 117.451 41.7989C116.896 41.5094 116.816 41.0356 117.133 40.2459Z" fill="#323232"/>
<path d="M133.595 40.4037C133.511 40.1576 133.519 39.8899 133.616 39.6487C133.712 39.4075 133.892 39.2085 134.123 39.0876C134.222 39.029 134.331 38.9907 134.445 38.9749C134.558 38.9591 134.674 38.9661 134.785 38.9956C134.895 39.025 134.999 39.0763 135.09 39.1463C135.181 39.2164 135.256 39.3038 135.312 39.4035C135.496 39.6656 135.748 39.8728 136.042 40.0026C136.335 40.1325 136.658 40.1802 136.977 40.1405C138.43 40.0089 138.642 38.298 137.426 37.0872C136.624 36.4633 135.865 35.7862 135.154 35.0604C134.897 34.7434 134.758 34.3487 134.758 33.9417C134.758 33.5347 134.897 33.14 135.154 32.823C136.105 31.6385 138.193 30.7436 140.069 30.7173C140.782 30.7173 141.178 30.9805 141.258 31.5069C141.363 32.086 141.02 32.4282 140.095 32.6388C139.34 32.7078 138.599 32.8944 137.902 33.1915C136.766 33.7443 136.766 34.0075 137.69 34.7445C139.276 35.929 139.989 37.1135 140.174 38.6928C140.209 39.467 139.96 40.2275 139.474 40.8326C138.988 41.4378 138.298 41.8466 137.532 41.983C135.946 42.3778 133.912 41.5355 133.595 40.4037Z" fill="#323232"/>
<path d="M142.368 40.0615C142.399 39.1737 142.523 38.2914 142.738 37.4294C142.976 36.3502 143.954 33.0073 144.218 32.3756C144.693 31.1385 145.222 30.7173 146.252 30.77C148.023 30.77 149.952 30.77 150.031 31.8755C150.216 33.0863 148.34 32.981 146.887 32.7441C146.385 32.6914 146.094 32.7441 145.962 33.2968C145.83 33.8496 145.724 34.1391 145.618 34.5603C145.583 34.6307 145.566 34.7091 145.57 34.7879C145.574 34.8666 145.599 34.9429 145.641 35.0093C145.684 35.0757 145.743 35.1299 145.813 35.1666C145.884 35.2032 145.962 35.221 146.041 35.2183C147.177 35.3236 147.944 35.2183 148.023 36.1396C148.076 37.3767 146.781 37.1398 145.46 37.2714C144.931 37.2714 144.746 37.4294 144.614 37.9295C144.535 38.2453 144.482 38.5875 144.429 38.956C144.376 39.3245 144.614 39.6141 145.09 39.6141C146.755 39.6141 147.732 38.956 147.996 40.1931C148.026 40.3906 147.991 40.5923 147.895 40.768C147.8 40.9436 147.65 41.0837 147.468 41.1671C146.259 41.4316 145.031 41.5988 143.795 41.6672C143.589 41.6758 143.384 41.6385 143.194 41.5581C143.004 41.4778 142.835 41.3562 142.698 41.2025C142.561 41.0487 142.461 40.8665 142.404 40.6691C142.347 40.4717 142.335 40.2642 142.368 40.0615Z" fill="#323232"/>
<path d="M150.03 40.4829C149.951 39.9039 150.823 37.5349 151.748 34.9291C152.144 33.8235 152.541 32.718 152.911 31.5862C153.201 30.6386 153.571 30.3227 154.232 30.4807C154.892 30.6386 155.077 31.2177 154.734 32.2179C154.073 34.1131 153.466 35.9819 153.069 37.1138C152.62 38.4298 152.409 38.9563 152.752 39.1405C152.937 39.2458 153.36 39.1932 154.285 39.0089C155.104 38.851 155.791 38.8773 155.897 39.667C155.938 39.8929 155.893 40.1261 155.771 40.3209C155.649 40.5157 155.458 40.658 155.236 40.7198C153.893 41.1384 152.512 41.4292 151.114 41.5885C150.824 41.5816 150.549 41.4621 150.346 41.2555C150.144 41.0489 150.03 40.7716 150.03 40.4829Z" fill="#323232"/>
<path d="M156.98 40.4829C156.9 39.9039 157.772 37.5349 158.697 34.9291C159.094 33.8235 159.49 32.718 159.86 31.5862C160.151 30.6386 160.52 30.3227 161.181 30.4807C161.842 30.6386 162.027 31.2177 161.683 32.2179C161.023 34.1131 160.415 35.9819 160.018 37.1138C159.569 38.4298 159.358 38.9563 159.701 39.1405C159.886 39.2458 160.309 39.1932 161.234 39.0089C162.053 38.851 162.74 38.8773 162.846 39.667C162.887 39.8929 162.843 40.1261 162.72 40.3209C162.598 40.5157 162.407 40.658 162.185 40.7198C160.842 41.1384 159.462 41.4292 158.063 41.5885C157.773 41.5816 157.498 41.4621 157.295 41.2555C157.093 41.0489 156.98 40.7716 156.98 40.4829Z" fill="#323232"/>
<path d="M171.223 38.9298L172.544 32.4546C172.782 31.4807 173.205 31.1385 174.13 31.1385C176.006 31.0859 177.512 31.1912 178.675 32.3493C178.902 32.5271 179.09 32.75 179.226 33.0038C179.362 33.2577 179.444 33.5369 179.467 33.824C179.489 34.111 179.451 34.3995 179.356 34.6713C179.261 34.943 179.11 35.1921 178.913 35.4026C177.644 36.9556 176.27 37.3768 174.288 37.6137C174.063 37.6344 173.851 37.7279 173.684 37.88C173.517 38.032 173.404 38.2343 173.363 38.456C173.225 39.1241 173.137 39.8016 173.099 40.4827C173.11 40.6426 173.08 40.8026 173.013 40.9483C172.946 41.094 172.844 41.2208 172.715 41.3173C172.587 41.4139 172.436 41.4772 172.277 41.5015C172.119 41.5258 171.956 41.5104 171.804 41.4567C170.827 41.2198 171.012 39.93 171.223 38.9298ZM177.043 34.4814C177.809 33.6654 176.594 33.1653 175.246 33.0863C174.586 33.0863 174.348 33.1916 174.216 33.8233C173.951 34.9815 173.846 35.6659 174.559 35.5606C175.497 35.5368 176.388 35.1496 177.043 34.4814Z" fill="#323232"/>
<path d="M179.837 40.4829C179.758 39.9039 180.63 37.5349 181.555 34.9291C181.951 33.8235 182.347 32.718 182.717 31.5862C183.008 30.6386 183.378 30.3227 184.039 30.4807C184.699 30.6386 184.884 31.2177 184.541 32.2179C183.88 34.1131 183.272 35.9819 182.876 37.1138C182.427 38.4298 182.215 38.9563 182.559 39.1405C182.744 39.2458 183.167 39.1932 184.091 39.0089C184.911 38.851 185.598 38.8773 185.703 39.667C185.745 39.8929 185.7 40.1261 185.578 40.3209C185.456 40.5157 185.265 40.658 185.043 40.7198C183.699 41.1384 182.319 41.4292 180.92 41.5885C180.631 41.5816 180.355 41.4621 180.153 41.2555C179.95 41.0489 179.837 40.7716 179.837 40.4829Z" fill="#323232"/>
<path d="M193.016 40.1931C193.027 40.1149 193.022 40.0353 193.001 39.9592C192.981 39.8831 192.944 39.8121 192.895 39.7504C192.845 39.6888 192.784 39.6379 192.714 39.6009C192.644 39.5638 192.567 39.5414 192.488 39.535L190.803 39.4824C190.663 39.4899 190.527 39.5356 190.411 39.6145C190.294 39.6933 190.202 39.8024 190.143 39.9298C189.749 40.6178 189.308 41.2774 188.822 41.904C188.655 42.02 188.457 42.0823 188.253 42.0823C188.05 42.0823 187.852 42.02 187.685 41.904C187.183 41.5881 187.157 41.009 187.685 40.1931L189.905 36.508C190.83 34.955 193.096 31.9543 194.047 31.3753C194.21 31.2513 194.403 31.1735 194.606 31.1501C194.81 31.1266 195.016 31.1584 195.203 31.242C195.39 31.3256 195.55 31.458 195.668 31.625C195.785 31.7921 195.855 31.9878 195.87 32.1912C196.002 33.2704 195.21 40.5616 194.893 41.6144C194.839 41.8352 194.702 42.0269 194.51 42.1495C194.318 42.2721 194.086 42.3161 193.862 42.2725C192.898 42.1145 193.016 41.3249 193.016 40.1931ZM193.439 36.9818C193.624 35.6657 193.624 35.4551 193.386 35.3762C192.858 35.1393 191.695 36.8239 191.959 37.2977C192.065 37.5345 192.277 37.5609 192.726 37.5609C192.897 37.5757 193.067 37.5236 193.2 37.4154C193.334 37.3073 193.419 37.1518 193.439 36.9818Z" fill="#323232"/>
<path d="M197.118 40.4037C197.391 39.0911 197.781 37.8051 198.281 36.5607C199.259 33.8232 200.045 31.0068 201.128 31.0068C201.301 30.9978 201.474 31.0315 201.631 31.105C201.787 31.1784 201.923 31.2894 202.027 31.428C202.397 31.8754 202.899 33.6916 203.136 34.8761L203.374 35.85C203.506 36.2448 203.586 36.4291 203.876 36.4291C204.167 36.4291 204.352 35.9027 204.748 34.8498C205.277 33.4021 205.858 31.9544 206.36 31.5596C206.549 31.4145 206.783 31.3399 207.021 31.349C207.269 31.361 207.503 31.4699 207.671 31.6522C207.839 31.8345 207.928 32.0755 207.919 32.3229C207.904 32.5526 207.841 32.7766 207.734 32.9809C206.801 34.8352 206.023 36.7633 205.409 38.7454C205.198 39.3508 204.96 40.0615 204.643 40.8775C204.589 41.0616 204.478 41.2242 204.326 41.3423C204.175 41.4604 203.99 41.528 203.797 41.5355C203.591 41.5286 203.39 41.4723 203.211 41.3715C203.031 41.2707 202.879 41.1284 202.767 40.9564C202.291 40.2984 202.238 39.4561 201.392 36.0343C201.37 35.9604 201.326 35.8949 201.265 35.8466C201.205 35.7983 201.131 35.7694 201.054 35.7637C200.977 35.758 200.899 35.7758 200.833 35.8147C200.766 35.8536 200.712 35.9118 200.679 35.9816C200.025 37.447 199.486 38.9607 199.067 40.509C198.856 41.246 198.44 41.6145 197.885 41.4829C197.648 41.4254 197.44 41.2844 197.299 41.0861C197.158 40.8878 197.094 40.6454 197.118 40.4037Z" fill="#323232"/>
<path d="M211.883 40.2459C212.543 38.5087 213.865 33.9287 213.865 33.0601C213.865 32.8232 213.759 32.6126 213.468 32.6126C212.041 32.6126 210.535 32.8758 209.907 32.8758C209.59 32.8758 209.326 32.6653 209.194 32.2178C209.062 31.7703 209.485 31.086 210.172 30.9807C212.015 30.6122 213.389 30.5595 218.542 30.5858C219.572 30.5858 220.074 30.9017 220.074 31.5334C220.072 31.7638 219.985 31.9853 219.829 32.1553C219.672 32.3254 219.459 32.432 219.229 32.4547C218.568 32.5073 217.722 32.5337 217.194 32.5337C216.163 32.5337 216.084 32.6126 215.82 33.5865C215.241 36.0886 214.526 38.5576 213.68 40.9829C213.362 41.7463 212.755 42.0884 212.2 41.7989C211.645 41.5094 211.566 41.0356 211.883 40.2459Z" fill="#323232"/>
<path d="M219.625 40.4037C219.544 40.1574 219.553 39.8907 219.65 39.6502C219.746 39.4096 219.925 39.2105 220.154 39.0876C220.252 39.029 220.361 38.9907 220.475 38.9749C220.589 38.9591 220.704 38.9661 220.815 38.9956C220.926 39.025 221.03 39.0763 221.12 39.1463C221.211 39.2164 221.287 39.3038 221.343 39.4035C221.527 39.6656 221.779 39.8728 222.072 40.0026C222.365 40.1325 222.689 40.1802 223.007 40.1405C224.461 40.0089 224.672 38.298 223.457 37.0872C222.654 36.4633 221.895 35.7862 221.184 35.0604C220.928 34.7434 220.788 34.3487 220.788 33.9417C220.788 33.5347 220.928 33.14 221.184 32.823C222.135 31.6385 224.223 30.7436 226.099 30.7173C226.812 30.7173 227.209 30.9805 227.288 31.5069C227.394 32.086 227.05 32.4282 226.125 32.6388C225.37 32.7078 224.63 32.8944 223.932 33.1915C222.796 33.7443 222.796 34.0075 223.721 34.7445C225.306 35.929 226.02 37.1135 226.205 38.6928C226.239 39.467 225.99 40.2275 225.504 40.8326C225.018 41.4378 224.328 41.8466 223.562 41.983C221.964 42.3778 219.942 41.5355 219.625 40.4037Z" fill="#323232"/>
<path d="M60.3196 62.1195C61.1388 58.6977 62.5657 53.9597 62.8828 53.5649C62.9954 53.3989 63.1621 53.2768 63.3547 53.2193C63.5474 53.1617 63.754 53.1722 63.9398 53.249C64.5475 53.4333 64.7061 54.0913 64.3361 55.1179C63.6227 57.4342 63.0942 58.9345 63.4179 59.2241C63.7416 59.5136 63.8671 59.2767 64.1842 58.9345C65.0298 58.1186 65.4526 57.6974 66.166 57.6974C66.8795 57.6974 67.2494 58.3555 67.4344 59.2767C67.725 60.119 68.0157 60.5928 68.4649 59.8295C69.2312 58.1712 71.398 53.9861 71.768 53.6439C71.8945 53.5036 72.0629 53.4075 72.2484 53.3696C72.4339 53.3317 72.6267 53.354 72.7985 53.4333C73.3798 53.6702 73.4591 54.2493 73.0627 55.1179C72.3229 56.5129 71.3716 58.4871 70.526 60.2243C69.9783 61.5074 69.3517 62.7557 68.6499 63.962C67.7515 64.9359 66.7738 64.1989 66.351 62.6459C66.2189 62.2774 66.0867 61.8299 65.8753 61.1719C65.7168 60.6981 65.3733 60.6191 65.0033 60.9613C64.4484 61.5404 63.8935 62.1195 63.3386 62.6722C62.4666 63.5672 61.8324 63.9883 61.3568 63.9883C60.5046 64.0673 60.0554 63.304 60.3196 62.1195Z" fill="#323232"/>
<path d="M73.8232 62.4351C73.8536 61.5472 73.9776 60.665 74.1931 59.8029C74.4309 58.7237 75.4086 55.3808 75.6729 54.7491C76.1485 53.512 76.677 53.0908 77.7076 53.1435C79.478 53.1435 81.407 53.1435 81.4862 54.249C81.6712 55.4598 79.7951 55.3545 78.3417 55.1176C77.8397 55.065 77.549 55.1176 77.4169 55.6704C77.2848 56.2231 77.1791 56.5127 77.0734 56.9338C77.0378 57.0042 77.0212 57.0827 77.0252 57.1614C77.0293 57.2401 77.0539 57.3164 77.0965 57.3828C77.1392 57.4492 77.1985 57.5034 77.2686 57.5401C77.3386 57.5767 77.4171 57.5946 77.4962 57.5919C78.6324 57.6971 79.3987 57.5919 79.478 58.5131C79.5308 59.7502 78.236 59.5134 76.9148 59.645C76.3863 59.645 76.2014 59.8029 76.0693 60.303C75.99 60.6189 75.9371 60.961 75.8843 61.3295C75.8314 61.6981 76.0693 61.9876 76.5449 61.9876C78.2096 61.9876 79.1873 61.3296 79.4516 62.5667C79.4813 62.7641 79.4459 62.9659 79.3506 63.1415C79.2552 63.3172 79.1052 63.4572 78.9231 63.5406C77.7142 63.8051 76.4859 63.9724 75.2501 64.0407C75.0441 64.0493 74.8387 64.0121 74.649 63.9317C74.4593 63.8513 74.2899 63.7298 74.1532 63.576C74.0166 63.4222 73.916 63.24 73.8589 63.0426C73.8018 62.8453 73.7896 62.6377 73.8232 62.4351Z" fill="#323232"/>
<path d="M88.6199 62.9353C88.8126 61.573 89.195 60.2441 89.7561 58.987C89.994 58.2763 90.4167 57.0129 90.7867 55.9863C91.4473 54.1175 91.7908 53.1699 93.2706 53.67C94.1417 53.9044 94.9473 54.3348 95.6253 54.928C96.3033 55.5213 96.8357 56.2615 97.1814 57.0919C97.4727 57.765 97.5702 58.5057 97.4628 59.2309C97.3555 59.9561 97.0476 60.6373 96.5736 61.198C95.7656 62.2549 94.6858 63.0746 93.4485 63.5704C92.2112 64.0662 90.8624 64.2196 89.5447 64.0145C89.4111 64.009 89.2801 63.9762 89.1598 63.9179C89.0395 63.8597 88.9326 63.7773 88.8458 63.676C88.759 63.5747 88.6941 63.4566 88.6552 63.3291C88.6163 63.2017 88.6043 63.0676 88.6199 62.9353ZM95.4902 58.6712C95.4354 58.0802 95.2227 57.5146 94.8741 57.0332C94.5256 56.5518 94.054 56.1721 93.5084 55.9337C93.112 55.7758 92.9006 56.0127 92.7157 56.5391C92.4778 57.1971 91.0774 61.198 90.9981 61.4613C90.9188 61.9614 91.2095 62.1983 91.6587 62.1193C93.482 61.6192 95.4109 60.3294 95.4902 58.6712Z" fill="#323232"/>
<path d="M99.6929 63.0667C98.2395 60.8293 99.5608 56.9074 101.595 54.6963C101.943 54.3205 102.355 54.0086 102.811 53.7751C103.07 53.6319 103.374 53.5903 103.662 53.6585C103.951 53.7266 104.203 53.8996 104.37 54.1436C104.541 54.3664 104.769 54.5392 105.031 54.6437C105.85 55.0912 106.088 56.5652 105.876 57.7233C105.453 59.9344 104.608 62.2507 103.075 63.5404C102.845 63.7812 102.56 63.9639 102.245 64.0732C101.929 64.1825 101.593 64.2154 101.262 64.169C100.931 64.1227 100.616 63.9986 100.344 63.8068C100.071 63.6151 99.8476 63.3614 99.6929 63.0667ZM103.841 56.223C103.657 55.7229 103.26 55.8282 102.837 56.223C101.734 57.4475 101.108 59.026 101.074 60.6714C101.074 61.4084 101.232 61.8822 101.655 61.9348C102.679 62.1191 104.238 57.5391 103.841 56.223Z" fill="#323232"/>
<path d="M114.12 62.8565C114.041 62.2774 114.913 59.9084 115.838 57.3026C116.234 56.1971 116.631 55.0916 117.001 53.9597C117.291 53.0121 117.661 52.6963 118.322 52.8542C118.982 53.0121 119.167 53.5912 118.824 54.5914C118.163 56.4866 117.555 58.3555 117.159 59.4873C116.71 60.8034 116.498 61.3298 116.842 61.5141C117.027 61.6194 117.45 61.5667 118.375 61.3825C119.194 61.2245 119.881 61.2509 119.986 62.0405C120.028 62.2665 119.983 62.4997 119.861 62.6945C119.739 62.8892 119.548 63.0315 119.326 63.0934C117.982 63.5119 116.602 63.8027 115.204 63.962C114.914 63.9551 114.638 63.8356 114.436 63.629C114.233 63.4225 114.12 63.1452 114.12 62.8565Z" fill="#323232"/>
<path d="M122.212 63.0667C120.759 60.8293 122.08 56.9074 124.115 54.6963C124.463 54.3205 124.874 54.0086 125.33 53.7751C125.59 53.6319 125.893 53.5903 126.182 53.6585C126.47 53.7266 126.722 53.8996 126.889 54.1436C127.061 54.3664 127.289 54.5392 127.55 54.6437C128.369 55.0912 128.607 56.5652 128.396 57.7233C127.973 59.9344 127.127 62.2507 125.595 63.5404C125.364 63.7812 125.08 63.9639 124.764 64.0732C124.449 64.1825 124.112 64.2154 123.781 64.169C123.451 64.1227 123.136 63.9986 122.863 63.8068C122.59 63.6151 122.367 63.3614 122.212 63.0667ZM126.361 56.223C126.176 55.7229 125.78 55.8282 125.357 56.223C124.231 57.4388 123.584 59.0183 123.534 60.6714C123.534 61.4084 123.692 61.8822 124.115 61.9348C125.192 62.1191 126.751 57.5391 126.354 56.223H126.361Z" fill="#323232"/>
<path d="M130.423 63.1723C130.212 62.4616 130.291 58.4607 130.423 55.3284C130.44 54.718 130.511 54.1102 130.635 53.5122C130.712 53.3391 130.838 53.1922 130.997 53.0893C131.157 52.9865 131.343 52.9322 131.533 52.9331C132.141 52.9858 132.458 53.4069 132.458 54.2492C132.273 56.118 132.088 59.1187 132.564 59.1714C133.33 59.224 135.048 55.1178 135.761 54.3282C135.895 54.1658 136.079 54.052 136.284 54.0044C136.49 53.9568 136.705 53.9781 136.897 54.065C137.124 54.161 137.304 54.3413 137.399 54.5674C137.494 54.7936 137.496 55.0477 137.406 55.2758C136.878 56.7234 133.046 62.988 132.306 63.6461C132.182 63.8124 132.011 63.9383 131.815 64.0078C131.62 64.0773 131.407 64.0874 131.206 64.0366C131.004 63.9859 130.822 63.8767 130.683 63.7228C130.544 63.5689 130.453 63.3773 130.423 63.1723Z" fill="#323232"/>
<path d="M137.954 62.4351C137.985 61.5472 138.109 60.665 138.324 59.8029C138.562 58.7237 139.54 55.3808 139.804 54.7491C140.279 53.512 140.808 53.0908 141.838 53.1435C143.609 53.1435 145.538 53.1435 145.617 54.249C145.802 55.4598 143.926 55.3545 142.473 55.1176C141.971 55.065 141.68 55.1176 141.548 55.6704C141.416 56.2231 141.31 56.5127 141.204 56.9338C141.169 57.0042 141.152 57.0827 141.156 57.1614C141.16 57.2401 141.185 57.3164 141.227 57.3828C141.27 57.4492 141.329 57.5034 141.399 57.5401C141.469 57.5767 141.548 57.5946 141.627 57.5919C142.763 57.6971 143.53 57.5919 143.609 58.5131C143.662 59.7502 142.367 59.5134 141.046 59.645C140.517 59.645 140.332 59.8029 140.2 60.303C140.121 60.6189 140.068 60.961 140.015 61.3295C139.962 61.6981 140.2 61.9876 140.676 61.9876C142.34 61.9876 143.318 61.3296 143.582 62.5667C143.612 62.7641 143.577 62.9659 143.481 63.1415C143.386 63.3172 143.236 63.4572 143.054 63.5406C141.845 63.8051 140.617 63.9724 139.381 64.0407C139.175 64.0493 138.97 64.0121 138.78 63.9317C138.59 63.8513 138.421 63.7298 138.284 63.576C138.147 63.4222 138.047 63.24 137.99 63.0426C137.933 62.8453 137.92 62.6377 137.954 62.4351Z" fill="#323232"/>
<path d="M152.752 61.5404C152.858 58.9082 154.84 54.4598 156.716 53.1964C156.916 53.0249 157.149 52.8959 157.4 52.8173C157.652 52.7387 157.917 52.7122 158.179 52.7393C158.442 52.7664 158.696 52.8466 158.926 52.975C159.156 53.1034 159.357 53.2773 159.517 53.4859C159.8 53.7711 160.003 54.1256 160.105 54.5138C160.207 54.9019 160.205 55.31 160.098 55.6969C160.03 55.8423 159.924 55.9671 159.791 56.0587C159.659 56.1503 159.505 56.2056 159.344 56.2189C159.183 56.2323 159.022 56.2032 158.876 56.1347C158.73 56.0662 158.605 55.9606 158.513 55.8285C158.196 55.4337 158.302 55.1179 157.932 54.9863C156.822 54.7494 154.629 60.04 154.787 61.7509C154.787 62.5932 155.448 62.9091 156.188 62.409C156.716 62.0142 157.562 60.935 157.852 60.777C157.961 60.7161 158.081 60.6779 158.204 60.6649C158.328 60.6518 158.453 60.6642 158.572 60.7012C158.691 60.7382 158.801 60.799 158.895 60.88C158.99 60.9609 159.066 61.0603 159.121 61.1719C159.676 62.1984 157.641 64.0146 156.531 64.4621C154.523 65.1991 152.673 63.7777 152.752 61.5404Z" fill="#323232"/>
<path d="M160.654 61.777C160.967 59.5516 161.444 57.3521 162.081 55.1965C162.609 53.3014 164.776 53.0908 166.573 53.8278C168.238 54.3805 168.872 55.8809 168 57.2496C167.577 57.9866 167.154 58.0919 166.282 58.671C165.833 58.9605 165.86 59.2764 166.282 59.5923C167.128 60.145 167.947 60.7504 168.733 61.3821C169.632 62.0928 169.869 62.4613 169.817 62.9878C169.817 63.9353 168.892 64.1196 168 63.3826C166.628 62.2029 165.161 61.1376 163.614 60.1977C163.217 60.0134 162.874 60.145 162.821 60.5398C162.636 61.777 162.504 63.8301 161.315 63.7248C160.39 63.6195 160.575 62.6982 160.654 61.777ZM165.199 57.0127C165.86 56.7758 166.23 56.4863 166.177 56.0915C166.071 55.4334 164.301 55.2228 164.036 55.7493C163.719 56.4073 163.587 56.8021 163.798 57.118C164.01 57.4339 164.492 57.3286 165.199 57.0127Z" fill="#323232"/>
<path d="M171.513 63.0666C170.06 60.8292 171.381 56.9073 173.416 54.6963C173.763 54.3204 174.175 54.0086 174.631 53.775C174.889 53.6322 175.192 53.5908 175.479 53.659C175.767 53.7272 176.018 53.9001 176.184 54.1435C176.355 54.3664 176.583 54.5391 176.844 54.6436C177.663 55.0911 177.901 56.5651 177.69 57.7233C177.267 59.9343 176.421 62.2506 174.895 63.5404C174.665 63.7812 174.38 63.9638 174.065 64.0731C173.75 64.1824 173.413 64.2153 173.082 64.169C172.751 64.1226 172.437 63.9985 172.164 63.8068C171.891 63.6151 171.668 63.3613 171.513 63.0666ZM175.655 56.2229C175.477 55.7228 175.074 55.8281 174.658 56.2229C173.548 57.4358 172.91 59.0045 172.861 60.645C172.861 61.382 173.019 61.8558 173.442 61.9084C174.499 62.119 176.052 57.539 175.655 56.2229Z" fill="#323232"/>
<path d="M181.475 54.3017C181.552 54.0801 181.704 53.8924 181.906 53.772C182.108 53.6516 182.346 53.6061 182.579 53.6437C183.239 53.7753 183.398 54.3544 183.16 55.4073C182.7 57.1928 182.138 58.9505 181.475 60.6716C180.762 62.7247 180.471 64.0408 179.494 63.6986C178.357 63.4091 178.965 61.9351 179.388 60.7243C180.286 58.3553 181.257 54.8545 181.475 54.3017Z" fill="#323232"/>
<path d="M184.382 62.7772C184.298 62.5311 184.306 62.2634 184.403 62.0222C184.5 61.781 184.679 61.5821 184.91 61.4611C185.009 61.4026 185.118 61.3643 185.232 61.3485C185.345 61.3326 185.461 61.3397 185.572 61.3691C185.683 61.3986 185.786 61.4498 185.877 61.5199C185.968 61.5899 186.043 61.6774 186.099 61.777C186.282 62.0391 186.533 62.2464 186.825 62.3764C187.117 62.5063 187.44 62.5539 187.758 62.514C189.211 62.3824 189.422 60.6715 188.207 59.4607C187.404 58.8368 186.645 58.1597 185.934 57.4339C185.68 57.116 185.542 56.7216 185.542 56.3152C185.542 55.9089 185.68 55.5145 185.934 55.1966C186.886 54.0121 188.973 53.1171 190.849 53.0908C191.563 53.0908 191.959 53.354 192.038 53.8805C192.144 54.4596 191.8 54.8017 190.876 55.0123C190.12 55.0814 189.38 55.2679 188.682 55.5651C187.546 56.1178 187.546 56.381 188.471 57.1181C190.056 58.3025 190.77 59.487 190.955 61.0663C190.989 61.8406 190.741 62.601 190.254 63.2062C189.768 63.8114 189.078 64.2202 188.312 64.3565C186.734 64.7514 184.699 63.9091 184.382 62.7772Z" fill="#323232"/>
<path d="M193.737 62.7772C193.654 62.5318 193.661 62.2652 193.757 62.0244C193.852 61.7836 194.03 61.5841 194.259 61.4611C194.357 61.4026 194.467 61.3643 194.58 61.3485C194.694 61.3326 194.809 61.3397 194.92 61.3691C195.031 61.3986 195.135 61.4498 195.225 61.5199C195.316 61.5899 195.392 61.6774 195.448 61.777C195.632 62.0391 195.884 62.2463 196.177 62.3762C196.471 62.506 196.794 62.5537 197.113 62.514C198.566 62.3824 198.777 60.6715 197.562 59.4607C196.759 58.8368 196 58.1597 195.289 57.4339C195.033 57.117 194.893 56.7222 194.893 56.3152C194.893 55.9083 195.033 55.5135 195.289 55.1966C196.241 54.0121 198.328 53.1171 200.204 53.0908C200.918 53.0908 201.314 53.354 201.393 53.8805C201.499 54.4596 201.155 54.8017 200.231 55.0123C199.475 55.0814 198.735 55.2679 198.037 55.5651C196.901 56.1178 196.901 56.381 197.826 57.1181C199.411 58.3025 200.125 59.487 200.31 61.0663C200.344 61.8406 200.096 62.601 199.61 63.2062C199.123 63.8114 198.433 64.2202 197.667 64.3565C196.082 64.7514 194.054 63.9091 193.737 62.7772Z" fill="#323232"/>
<path d="M207.682 62.5666C207.693 62.4884 207.688 62.4089 207.667 62.3327C207.646 62.2566 207.61 62.1856 207.56 62.124C207.511 62.0623 207.449 62.0114 207.379 61.9744C207.309 61.9373 207.232 61.9149 207.153 61.9085L205.449 61.8559C205.309 61.8642 205.173 61.9101 205.057 61.9889C204.941 62.0677 204.848 62.1764 204.789 62.3034C204.395 62.9913 203.953 63.651 203.467 64.2775C203.302 64.393 203.105 64.455 202.902 64.455C202.7 64.455 202.503 64.393 202.338 64.2775C201.836 63.9616 201.809 63.3826 202.338 62.5666L204.551 58.8815C205.476 57.3285 207.748 54.3279 208.699 53.7488C208.862 53.6249 209.055 53.5471 209.259 53.5236C209.462 53.5002 209.668 53.5319 209.855 53.6155C210.042 53.6991 210.203 53.8315 210.32 53.9986C210.438 54.1657 210.508 54.3613 210.523 54.5648C210.655 55.644 209.862 62.9351 209.545 63.988C209.491 64.2088 209.354 64.4004 209.162 64.523C208.97 64.6456 208.738 64.6897 208.514 64.646C207.576 64.4881 207.682 63.6984 207.682 62.5666ZM208.092 59.3553C208.277 58.0392 208.277 57.8287 208.039 57.7497C207.51 57.5128 206.348 59.1974 206.612 59.6712C206.718 59.9081 206.929 59.9344 207.378 59.9344C207.549 59.9493 207.72 59.8971 207.853 59.789C207.986 59.6809 208.072 59.5253 208.092 59.3553Z" fill="#323232"/>
<path d="M211.779 62.7772C212.052 61.4646 212.441 60.1786 212.941 58.9342C213.919 56.1968 214.712 53.3803 215.795 53.3803C215.968 53.3713 216.141 53.405 216.297 53.4785C216.454 53.552 216.59 53.6629 216.693 53.8015C217.063 54.249 217.565 56.0652 217.803 57.2496L218.041 58.2235C218.173 58.6184 218.252 58.8026 218.543 58.8026C218.834 58.8026 219.019 58.2762 219.415 57.2233C219.944 55.7756 220.525 54.3279 221.027 53.9331C221.216 53.788 221.449 53.7135 221.688 53.7225C221.936 53.7345 222.169 53.8434 222.338 54.0257C222.506 54.208 222.595 54.449 222.586 54.6964C222.571 54.9261 222.508 55.1502 222.401 55.3545C221.468 57.2088 220.69 59.1368 220.076 61.1189C219.864 61.7243 219.627 62.435 219.309 63.251C219.256 63.4351 219.145 63.5978 218.993 63.7159C218.841 63.8339 218.656 63.9015 218.464 63.909C218.258 63.9021 218.057 63.8459 217.878 63.7451C217.698 63.6443 217.546 63.5019 217.433 63.33C216.958 62.6719 216.905 61.8296 216.059 58.4078C216.037 58.3339 215.993 58.2685 215.932 58.2202C215.872 58.1719 215.798 58.143 215.721 58.1372C215.643 58.1315 215.566 58.1493 215.499 58.1882C215.432 58.2271 215.379 58.2853 215.346 58.3552C214.692 59.8205 214.153 61.3342 213.734 62.8825C213.523 63.6195 213.073 63.988 212.545 63.8564C212.308 63.7989 212.1 63.6579 211.959 63.4596C211.818 63.2613 211.754 63.0189 211.779 62.7772Z" fill="#323232"/>
<path d="M226.549 62.6195C227.21 60.8822 228.531 56.3022 228.531 55.4336C228.531 55.1967 228.426 54.9861 228.135 54.9861C226.708 54.9861 225.202 55.2494 224.568 55.2494C224.251 55.2494 223.986 55.0388 223.854 54.5913C223.722 54.1439 224.145 53.4595 224.832 53.3542C226.682 52.9857 228.056 52.9331 233.208 52.9594C234.239 52.9594 234.741 53.2752 234.741 53.907C234.739 54.1373 234.651 54.3588 234.495 54.5289C234.339 54.6989 234.126 54.8055 233.895 54.8282C233.235 54.8809 232.389 54.9072 231.861 54.9072C230.83 54.9072 230.751 54.9862 230.487 55.9601C229.907 58.4621 229.193 60.9312 228.346 63.3565C228.029 64.1198 227.421 64.462 226.867 64.1724C226.312 63.8829 226.232 63.4091 226.549 62.6195Z" fill="#323232"/>
<path d="M234.292 62.7773C234.209 62.5311 234.216 62.2634 234.313 62.0222C234.41 61.781 234.59 61.5821 234.82 61.4612C234.919 61.4026 235.028 61.3643 235.142 61.3485C235.255 61.3327 235.371 61.3397 235.482 61.3691C235.593 61.3986 235.697 61.4499 235.787 61.5199C235.878 61.59 235.953 61.6774 236.01 61.777C236.193 62.0392 236.446 62.2463 236.739 62.3762C237.032 62.5061 237.356 62.5537 237.674 62.5141C239.128 62.3824 239.339 60.6715 238.123 59.4607C237.317 58.8458 236.554 58.1775 235.838 57.4603C235.581 57.1433 235.442 56.7486 235.442 56.3416C235.442 55.9346 235.581 55.5399 235.838 55.2229C236.789 54.0384 238.877 53.1435 240.753 53.1172C241.466 53.1172 241.862 53.3804 241.942 53.9068C242.047 54.4859 241.704 54.8281 240.779 55.0387C240.024 55.1077 239.283 55.2943 238.586 55.5914C237.45 56.1442 237.45 56.4074 238.374 57.1444C239.96 58.3289 240.673 59.5134 240.858 61.0927C240.893 61.8669 240.644 62.6273 240.158 63.2325C239.672 63.8377 238.982 64.2465 238.216 64.3829C236.644 64.7514 234.609 63.9091 234.292 62.7773Z" fill="#323232"/>
<path d="M63.8346 84.993C64.4952 83.2558 65.8164 78.6758 65.8164 77.8072C65.8164 77.5703 65.7107 77.3597 65.4201 77.3597C63.9932 77.3597 62.487 77.6229 61.8528 77.6229C61.5357 77.6229 61.2715 77.4123 61.1393 76.9649C61.0072 76.5174 61.43 75.833 62.117 75.7277C63.9667 75.3592 65.3408 75.3066 70.4935 75.3329C71.5241 75.3329 72.0261 75.6488 72.0261 76.2805C72.024 76.5109 71.9365 76.7324 71.7804 76.9024C71.6244 77.0724 71.4107 77.179 71.1806 77.2018C70.5199 77.2544 69.6744 77.2807 69.1459 77.2807C68.1153 77.2807 68.0361 77.3597 67.7718 78.3336C67.1925 80.8356 66.478 83.3047 65.6315 85.73C65.3144 86.4933 64.7066 86.8355 64.1517 86.546C63.5968 86.2564 63.5175 85.7826 63.8346 84.993Z" fill="#323232"/>
<path d="M76.3594 84.8878L76.6765 83.9665C76.9672 83.0453 76.8615 82.8873 75.9102 82.8347C75.5138 82.8347 75.091 82.7821 74.6947 82.7821C74.5075 82.7617 74.3191 82.8089 74.164 82.9152C74.0088 83.0215 73.8971 83.1797 73.8491 83.3611C73.6049 84.2596 73.2958 85.1393 72.9243 85.9933C72.8094 86.1718 72.6366 86.3057 72.4347 86.3728C72.2327 86.4398 72.0139 86.4359 71.8144 86.3618C71.614 86.2972 71.4429 86.1639 71.3317 85.9856C71.2204 85.8073 71.1761 85.5956 71.2067 85.3879C71.2595 84.6772 73.8491 76.9913 74.3776 76.4385C74.5082 76.2876 74.6814 76.1793 74.8746 76.1277C75.0678 76.076 75.2721 76.0835 75.461 76.149C75.6438 76.2315 75.7945 76.3713 75.8899 76.5472C75.9854 76.7231 76.0203 76.9253 75.9895 77.1229C75.9895 77.4124 75.3817 79.0444 75.0382 79.9919C74.8532 80.5447 75.0382 80.8342 75.646 80.8606H77.1257C77.7863 80.8606 77.7863 80.4921 78.1034 79.6498C78.4658 78.5235 78.9073 77.4241 79.4246 76.3595C79.5341 76.1468 79.7198 75.9828 79.9449 75.9C80.17 75.8171 80.4181 75.8214 80.6401 75.9121C81.1686 76.149 81.3008 76.7544 81.0365 77.5177L79.3189 82.203C78.1827 85.3879 77.9977 86.8093 76.8879 86.4408C76.333 86.2828 76.1216 85.7301 76.3594 84.8878Z" fill="#323232"/>
<path d="M82.8608 85.4402C81.4075 83.2028 82.7287 79.2809 84.7634 77.0699C85.1111 76.694 85.5225 76.3822 85.9789 76.1486C86.2381 76.0054 86.5417 75.9638 86.8301 76.032C87.1185 76.1002 87.3709 76.2732 87.5379 76.5171C87.709 76.74 87.9372 76.9127 88.1985 77.0172C89.0177 77.4647 89.2555 78.9387 89.0441 80.0969C88.6213 82.3079 87.7758 84.6242 86.2431 85.914C86.0128 86.1548 85.7282 86.3374 85.4128 86.4467C85.0974 86.556 84.7605 86.5889 84.4298 86.5426C84.0992 86.4962 83.7844 86.3721 83.5115 86.1804C83.2386 85.9887 83.0156 85.7349 82.8608 85.4402ZM87.0095 78.5965C86.8245 78.0964 86.4281 78.2017 86.0053 78.5965C84.8953 79.8094 84.2579 81.3781 84.2085 83.0186C84.2085 83.7556 84.367 84.2294 84.7898 84.282C85.8798 84.4926 87.4058 79.9126 87.0095 78.5965Z" fill="#323232"/>
<path d="M90.7086 85.1507C89.9159 83.2555 90.8936 79.3599 91.977 76.833C92.0481 76.6395 92.1682 76.4676 92.3256 76.3339C92.483 76.2002 92.6724 76.1091 92.8754 76.0697C93.0188 76.0352 93.1685 76.0376 93.3107 76.0765C93.4529 76.1154 93.5829 76.1896 93.6885 76.2921C93.7941 76.3947 93.8718 76.5222 93.9145 76.6629C93.9571 76.8035 93.9633 76.9526 93.9324 77.0962C93.8002 77.7542 92.6112 81.1761 92.5583 81.7025C92.3205 83.2555 92.3205 84.0715 92.7433 84.282C93.6681 84.6506 95.5443 80.4127 96.6276 76.9646C96.9183 76.0433 97.4732 75.7801 98.0546 75.9644C98.6359 76.1486 98.8209 76.7803 98.5302 77.57L97.2618 80.9392C96.3105 83.2818 95.095 85.256 94.0381 86.0719C93.7776 86.2902 93.4677 86.4419 93.1352 86.5139C92.8026 86.586 92.4575 86.5762 92.1296 86.4855C91.8016 86.3948 91.5009 86.2258 91.2533 85.9932C91.0057 85.7606 90.8187 85.4714 90.7086 85.1507Z" fill="#323232"/>
<path d="M98.767 85.1508C98.1064 82.5186 101.013 75.8855 103.55 75.0959C103.891 74.9866 104.257 74.9863 104.599 75.0948C104.94 75.2034 105.238 75.4154 105.452 75.7013C105.954 76.3593 106.351 77.4648 105.902 78.0966C105.452 78.7283 104.871 78.6756 104.343 78.0439C103.761 77.228 103.576 77.228 103.021 78.0439C101.85 79.6948 101.056 81.5817 100.696 83.5715C100.485 84.5717 100.855 85.2824 101.568 84.8876C102.445 84.3166 103.236 83.6254 103.92 82.8345C103.048 82.1764 103.074 81.2025 103.973 81.0709C104.527 81.0035 105.088 81.0213 105.637 81.1236C105.803 81.1543 105.96 81.2232 106.094 81.3247C106.228 81.4263 106.337 81.5577 106.412 81.7085C106.486 81.8594 106.524 82.0254 106.523 82.1935C106.521 82.3616 106.481 82.527 106.404 82.6766C105.611 84.4138 102.731 87.1249 100.96 86.9933C100.444 86.9628 99.9517 86.7669 99.5565 86.4348C99.1613 86.1028 98.8843 85.6524 98.767 85.1508Z" fill="#323232"/>
<path d="M112.561 84.8878L112.878 83.9665C113.168 83.0453 113.063 82.8873 112.111 82.8347C111.715 82.8347 111.292 82.7821 110.896 82.7821C110.709 82.7617 110.52 82.8089 110.365 82.9152C110.21 83.0215 110.098 83.1797 110.05 83.3611C109.806 84.2596 109.497 85.1393 109.125 85.9933C109.011 86.1718 108.838 86.3057 108.636 86.3728C108.434 86.4398 108.215 86.4359 108.016 86.3618C107.815 86.2972 107.644 86.1639 107.533 85.9856C107.422 85.8073 107.377 85.5956 107.408 85.3879C107.461 84.6772 110.05 76.9913 110.579 76.4385C110.709 76.2876 110.883 76.1793 111.076 76.1277C111.269 76.076 111.473 76.0835 111.662 76.149C111.845 76.2315 111.996 76.3713 112.091 76.5472C112.187 76.7231 112.222 76.9253 112.191 77.1229C112.191 77.4124 111.583 79.0444 111.239 79.9919C111.054 80.5447 111.239 80.8342 111.847 80.8606H113.327C113.987 80.8606 113.987 80.4921 114.305 79.6498C114.667 78.5235 115.108 77.4241 115.626 76.3595C115.735 76.1468 115.921 75.9828 116.146 75.9C116.371 75.8171 116.619 75.8214 116.841 75.9121C117.37 76.149 117.502 76.7544 117.238 77.5177L115.52 82.203C114.384 85.3879 114.199 86.8093 113.089 86.4408C112.534 86.2828 112.303 85.7301 112.561 84.8878Z" fill="#323232"/>
<path d="M118.138 86.0459C118.138 85.8574 118.194 85.6732 118.3 85.5168C118.406 85.3605 118.556 85.2391 118.731 85.1682C118.907 85.0973 119.099 85.0802 119.284 85.1189C119.47 85.1577 119.639 85.2506 119.771 85.3857C119.903 85.5209 119.991 85.6922 120.025 85.8777C120.059 86.0632 120.036 86.2545 119.96 86.4271C119.884 86.5997 119.758 86.7459 119.598 86.8467C119.438 86.9476 119.252 86.9987 119.062 86.9935C118.938 86.9954 118.815 86.972 118.7 86.9247C118.585 86.8774 118.481 86.8072 118.395 86.7185C118.308 86.6298 118.241 86.5243 118.196 86.4087C118.152 86.293 118.132 86.1695 118.138 86.0459ZM119.036 81.9397C119.247 81.0448 120.436 77.544 120.859 75.6225C121.044 74.9644 121.441 74.7012 121.943 74.7802C122.087 74.7892 122.227 74.8314 122.351 74.9034C122.476 74.9755 122.582 75.0754 122.662 75.1953C122.741 75.3153 122.792 75.452 122.809 75.5946C122.826 75.7372 122.81 75.8819 122.762 76.0173C121.996 78.3336 121.308 81.8081 120.78 82.6504C120.658 82.8426 120.473 82.9869 120.256 83.0589C120.039 83.1308 119.804 83.126 119.591 83.0452C119.375 82.9647 119.198 82.8061 119.096 82.601C118.993 82.396 118.971 82.1597 119.036 81.9397Z" fill="#323232"/>
<path d="M6.55433 43.432C9.63936 43.8729 12.7508 42.8332 15.7037 42.1159C18.9962 41.2198 22.3437 40.5384 25.7251 40.0759C30.9202 39.3895 36.201 40.3326 40.8332 42.7739C39.7484 42.5259 38.6424 42.3805 37.5302 42.3396C36.2552 42.3396 35.8919 44.3664 37.2197 44.623C40.1117 45.121 42.9227 46.0064 45.5764 47.2552C45.8728 47.4138 46.2162 47.4624 46.5453 47.3923C46.8743 47.3222 47.1677 47.138 47.3732 46.8725C47.5786 46.607 47.6828 46.2775 47.667 45.9426C47.6513 45.6078 47.5168 45.2894 47.2873 45.0442C45.0492 42.3767 43.264 39.3625 42.0025 36.1211C41.9395 35.9302 41.8376 35.7544 41.703 35.6047C41.5684 35.455 41.4042 35.3348 41.2206 35.2515C41.037 35.1682 40.8381 35.1237 40.6364 35.1208C40.4348 35.1179 40.2347 35.1567 40.0488 35.2347C39.8629 35.3127 39.6952 35.4282 39.5564 35.574C39.4175 35.7197 39.3105 35.8925 39.2421 36.0816C39.1737 36.2706 39.1453 36.4717 39.1588 36.6721C39.1723 36.8726 39.2273 37.0681 39.3204 37.2464C39.7828 38.2729 40.3576 39.2205 40.8993 40.2076C37.9238 38.571 34.6153 37.6262 31.2214 37.4438C24.4369 36.9963 17.9234 39.0757 11.4032 40.4708C8.44366 41.1288 4.13651 41.3065 3.09275 37.7136C2.20093 34.7326 3.41645 31.1331 4.71124 28.4417C7.56506 22.5193 12.5923 18.0315 15.7169 12.2802C17.1769 9.52296 18.399 6.00901 16.7673 3.02807C15.5518 0.803882 13.0547 -0.656976 10.5708 0.303768C9.91021 0.553825 9.91021 1.69224 10.7492 1.61986C14.3032 1.25793 15.4395 5.25226 14.6005 7.98972C13.6558 11.0759 11.3371 13.7805 9.42136 16.3206C5.82105 21.0585 1.8376 25.8359 0.483354 31.778C-0.104586 34.351 -0.349011 37.3385 0.906142 39.7601C1.48559 40.7763 2.30056 41.6398 3.28308 42.2785C4.2656 42.9173 5.3872 43.3127 6.55433 43.432Z" fill="#323232"/>
</svg>
