<svg width="14" height="14" viewBox="0 0 14 14" fill="none" xmlns="http://www.w3.org/2000/svg">
<path d="M7 0C5.09835 0 4.86092 0.00875 4.11425 0.042C3.36875 0.077 2.86125 0.19425 2.415 0.3675C1.95475 0.546 1.56392 0.78575 1.17483 1.17483C0.78575 1.56392 0.545415 1.95416 0.3675 2.415C0.19425 2.86125 0.0764165 3.36875 0.042 4.11425C0.007 4.86092 0 5.09835 0 7C0 8.90165 0.00875 9.1391 0.042 9.88575C0.077 10.6306 0.19425 11.1388 0.3675 11.585C0.546 12.0447 0.78575 12.4361 1.17483 12.8251C1.56392 13.2136 1.95416 13.4546 2.415 13.6325C2.86184 13.8052 3.36934 13.9236 4.11425 13.958C4.86092 13.993 5.09835 14 7 14C8.90165 14 9.1391 13.9913 9.88575 13.958C10.6306 13.923 11.1388 13.8052 11.585 13.6325C12.0447 13.454 12.4361 13.2136 12.8251 12.8251C13.2136 12.4361 13.4546 12.0464 13.6325 11.585C13.8052 11.1388 13.9236 10.6306 13.958 9.88575C13.993 9.1391 14 8.90165 14 7C14 5.09835 13.9913 4.86092 13.958 4.11425C13.923 3.36934 13.8052 2.86066 13.6325 2.415C13.454 1.95475 13.2136 1.56392 12.8251 1.17483C12.4361 0.78575 12.0464 0.545415 11.585 0.3675C11.1388 0.19425 10.6306 0.0764165 9.88575 0.042C9.1391 0.007 8.90165 0 7 0ZM7 1.26C8.8684 1.26 9.09125 1.26933 9.82915 1.30141C10.5117 1.3335 10.8821 1.44666 11.1283 1.5435C11.4561 1.67008 11.6882 1.82175 11.9344 2.06616C12.1788 2.31116 12.3305 2.54392 12.4571 2.87175C12.5527 3.11792 12.6671 3.48834 12.698 4.17084C12.7312 4.90934 12.7388 5.131 12.7388 7C12.7388 8.869 12.7301 9.09125 12.6957 9.82915C12.6601 10.5117 12.5463 10.8821 12.4501 11.1283C12.3194 11.4561 12.1706 11.6882 11.9256 11.9344C11.6812 12.1788 11.445 12.3305 11.1207 12.4571C10.8757 12.5527 10.4994 12.6671 9.8169 12.698C9.07375 12.7312 8.855 12.7388 6.9825 12.7388C5.1094 12.7388 4.89067 12.7301 4.14809 12.6957C3.465 12.6601 3.08875 12.5463 2.84375 12.4501C2.51184 12.3194 2.28375 12.1706 2.03934 11.9256C1.79375 11.6812 1.63684 11.445 1.51434 11.1207C1.41809 10.8757 1.30492 10.4994 1.26934 9.8169C1.24309 9.0819 1.23375 8.855 1.23375 6.99125C1.23375 5.1269 1.24309 4.89942 1.26934 4.15566C1.30492 3.47317 1.41809 3.0975 1.51434 2.8525C1.63684 2.52 1.79375 2.2925 2.03934 2.04692C2.28375 1.8025 2.51184 1.645 2.84375 1.52308C3.08875 1.42625 3.45684 1.3125 4.13934 1.2775C4.88309 1.25125 5.10185 1.2425 6.97375 1.2425L7 1.26ZM7 3.4055C5.01375 3.4055 3.4055 5.0155 3.4055 7C3.4055 8.98625 5.0155 10.5945 7 10.5945C8.98625 10.5945 10.5945 8.9845 10.5945 7C10.5945 5.01375 8.9845 3.4055 7 3.4055ZM7 9.33335C5.71085 9.33335 4.66667 8.28915 4.66667 7C4.66667 5.71085 5.71085 4.66667 7 4.66667C8.28915 4.66667 9.33335 5.71085 9.33335 7C9.33335 8.28915 8.28915 9.33335 7 9.33335ZM11.5768 3.26375C11.5768 3.7275 11.2 4.10375 10.7368 4.10375C10.2731 4.10375 9.89685 3.72692 9.89685 3.26375C9.89685 2.80059 10.2737 2.42434 10.7368 2.42434C11.1994 2.42375 11.5768 2.80059 11.5768 3.26375Z" fill="#AAAAAA"/>
</svg>
