<svg width="16" height="15" viewBox="0 0 16 15" fill="none" xmlns="http://www.w3.org/2000/svg">
<path d="M14.325 1.00942C12.5188 -0.509331 9.72813 -0.281206 8 1.47817C6.27188 -0.281206 3.48125 -0.512456 1.675 1.00942C-0.674996 2.98754 -0.331246 6.21254 1.34375 7.92192L6.825 13.5063C7.1375 13.825 7.55625 14.0032 8 14.0032C8.44688 14.0032 8.8625 13.8282 9.175 13.5094L14.6563 7.92505C16.3281 6.21567 16.6781 2.99067 14.325 1.00942ZM13.5875 6.86879L8.10625 12.4532C8.03125 12.5282 7.96875 12.5282 7.89375 12.4532L2.4125 6.86879C1.27188 5.70629 1.04063 3.50629 2.64063 2.15942C3.85625 1.13754 5.73125 1.29067 6.90625 2.48754L8 3.60317L9.09375 2.48754C10.275 1.28442 12.15 1.13754 13.3594 2.15629C14.9563 3.50317 14.7188 5.71567 13.5875 6.86879Z" fill="#323232"/>
</svg>
